<svg width="17" height="17" viewBox="0 0 17 17" fill="none" xmlns="http://www.w3.org/2000/svg">
<path d="M14.99 13.9401L11.4274 10.3776C12.9194 8.37432 12.7624 5.52225 10.945 3.70478C8.94879 1.70859 5.70085 1.70859 3.70466 3.70478C1.70847 5.70097 1.70847 8.94891 3.70466 10.9451C5.52213 12.7626 8.3742 12.9196 10.3775 11.4275L13.94 14.9902C14.2299 15.2801 14.7 15.2801 14.99 14.9902C15.28 14.7002 15.28 14.2301 14.99 13.9401ZM4.40477 10.2452C2.79454 8.63493 2.79454 6.01495 4.40477 4.40489C6.01483 2.79466 8.63481 2.79466 10.245 4.40489C11.8551 6.01495 11.8551 8.63493 10.245 10.2452C8.63481 11.8552 6.01483 11.8552 4.40477 10.2452Z" fill="#EBEBEB"/>
<path d="M4.17815 7.77214C4.00744 7.77214 3.86914 7.63384 3.86914 7.46313C3.86914 5.52832 5.44323 3.95422 7.37822 3.95422C7.54876 3.95422 7.68723 4.09253 7.68723 4.26323C7.68723 4.43377 7.54876 4.57207 7.37822 4.57207C5.78412 4.57207 4.48716 5.86903 4.48716 7.46313C4.48716 7.63384 4.34886 7.77214 4.17815 7.77214Z" fill="#EBEBEB"/>
</svg>
