<svg width="13" height="13" viewBox="0 0 13 13" fill="none" xmlns="http://www.w3.org/2000/svg">
<path d="M12.231 7.04239H11.7015V12.4727C11.6992 12.5094 11.6933 12.5454 11.684 12.5809C11.6748 12.6164 11.6622 12.6506 11.646 12.6836C11.63 12.7166 11.611 12.7477 11.5888 12.7771C11.5668 12.8062 11.542 12.8332 11.5147 12.8576C11.4873 12.8821 11.4578 12.9036 11.4263 12.9222C11.3947 12.9409 11.3617 12.9564 11.327 12.9686C11.2925 12.9809 11.257 12.9896 11.2207 12.9949C11.1843 13.0001 11.148 13.0019 11.1113 13.0001H7.98282V9.29739C7.98282 9.27206 7.98049 9.24689 7.97549 9.22189C7.97049 9.19706 7.96316 9.17289 7.95349 9.14939C7.94382 9.12589 7.93182 9.10356 7.91766 9.08256C7.90366 9.06139 7.88766 9.04189 7.86966 9.02389C7.85166 9.00589 7.83216 8.98989 7.81099 8.97573C7.78999 8.96173 7.76766 8.94973 7.74416 8.94006C7.72082 8.93023 7.69666 8.92289 7.67166 8.91789C7.64682 8.91306 7.62166 8.91056 7.59616 8.91056H5.32649C5.30099 8.91056 5.27599 8.91289 5.25099 8.91789C5.22616 8.92289 5.20199 8.93023 5.17849 8.93989C5.15499 8.94973 5.13266 8.96156 5.11166 8.97573C5.09049 8.98989 5.07099 9.00589 5.05299 9.02389C5.03499 9.04173 5.01899 9.06139 5.00482 9.08239C4.99082 9.10356 4.97882 9.12589 4.96916 9.14939C4.95949 9.17289 4.95216 9.19706 4.94716 9.22189C4.94232 9.24689 4.93982 9.27206 4.93982 9.29739V12.9997H1.81116C1.77466 13.0017 1.73832 13.0001 1.70216 12.9949C1.66582 12.9897 1.63049 12.9811 1.59599 12.9689C1.56149 12.9567 1.52866 12.9414 1.49716 12.9229C1.46566 12.9042 1.43616 12.8827 1.40899 12.8584C1.38166 12.8341 1.35699 12.8072 1.33499 12.7781C1.31299 12.7489 1.29399 12.7177 1.27816 12.6849C1.26216 12.6519 1.24966 12.6177 1.24049 12.5824C1.23116 12.5471 1.22549 12.5111 1.22332 12.4746V7.04239H0.691491C0.101991 7.04239 -0.217342 6.48739 0.168824 6.13123L5.98949 0.750228C6.02582 0.719394 6.06466 0.692061 6.10599 0.668061C6.14716 0.644061 6.19032 0.623894 6.23499 0.607561C6.27982 0.591061 6.32582 0.578894 6.37282 0.570561C6.41982 0.562228 6.46716 0.558228 6.51482 0.558228C6.56249 0.558394 6.60982 0.562728 6.65682 0.571061C6.70382 0.579561 6.74966 0.592061 6.79432 0.608561C6.83916 0.625227 6.88199 0.645561 6.92316 0.669561C6.96432 0.693728 7.00316 0.721394 7.03932 0.752228C8.94499 2.54589 10.8513 4.33956 12.7585 6.13306C13.1375 6.49273 12.8185 7.04239 12.231 7.04239Z" fill="#EBEBEB"/>
</svg>
