<svg width="93" height="93" viewBox="0 0 93 93" fill="none" xmlns="http://www.w3.org/2000/svg" class="fill-red-800">
<path d="M84.9819 68.6569C84.9819 77.4723 77.7982 84.6259 68.9458 84.6259H24.0498C15.2018 84.6259 8.0181 77.4723 8.0181 68.6569V23.9535C8.0181 15.1381 15.2018 7.9845 24.0498 7.9845H68.9458C77.7982 7.9845 84.9819 15.1381 84.9819 23.9535V68.6569ZM70.552 4.523e-05H22.448C10.0528 4.523e-05 0 10.0106 0 22.3539V70.2565C0 82.5998 10.0528 92.6104 22.448 92.6104H70.552C82.9428 92.6104 93 82.5998 93 70.2565V22.3539C93 10.0106 82.9428 4.523e-05 70.552 4.523e-05Z" fill="white"/>
<path d="M46.4978 62.272C37.6632 62.272 30.4661 55.1051 30.4661 46.303C30.4661 37.5054 37.6632 30.3386 46.4978 30.3386C55.3324 30.3386 62.534 37.5054 62.534 46.303C62.534 55.1051 55.3324 62.272 46.4978 62.272ZM46.4978 22.354C33.2236 22.354 22.448 33.0844 22.448 46.303C22.448 59.5261 33.2236 70.2565 46.4978 70.2565C59.7765 70.2565 70.5521 59.5261 70.5521 46.303C70.5521 33.0844 59.7765 22.354 46.4978 22.354Z" />
<path d="M72.154 25.5486C69.4991 25.5486 67.344 23.398 67.344 20.7587C67.344 18.115 69.4991 15.969 72.154 15.969C74.8044 15.969 76.9639 18.115 76.9639 20.7587C76.9639 23.398 74.8044 25.5486 72.154 25.5486Z" fill="white"/>
</svg>
