<svg width="353" height="326" viewBox="0 0 353 326" fill="none" xmlns="http://www.w3.org/2000/svg">
<path d="M326 190.068H145.396C130.427 190.068 118.297 177.938 118.297 162.969C118.297 148.005 130.427 135.87 145.396 135.87H326C340.963 135.87 353.099 148.005 353.099 162.969C353.099 177.938 340.963 190.068 326 190.068ZM326 63.6198H145.396C130.427 63.6198 118.297 51.4844 118.297 36.5208C118.297 21.5521 130.427 9.41667 145.396 9.41667H326C340.963 9.41667 353.099 21.5521 353.099 36.5208C353.099 51.4844 340.963 63.6198 326 63.6198ZM36.9947 325.521C17.0572 325.521 0.895752 309.359 0.895752 289.422C0.895752 269.479 17.0572 253.323 36.9947 253.323C56.9374 253.323 73.0937 269.479 73.0937 289.422C73.1458 309.313 56.9843 325.521 36.9947 325.521ZM36.9947 199.073C17.0572 199.073 0.895752 182.911 0.895752 162.969C0.895752 143.031 17.0572 126.87 36.9947 126.87C56.9374 126.87 73.0937 143.031 73.0937 162.969C73.0937 182.911 56.9843 199.073 36.9947 199.073ZM36.9947 72.6667C17.0572 72.6667 0.895752 56.5104 0.895752 36.5677C0.895752 16.6302 17.0572 0.46875 36.9947 0.46875C56.9374 0.46875 73.0937 16.6302 73.0937 36.5677C73.0937 56.5104 56.9843 72.6667 36.9947 72.6667ZM145.396 262.271H326C340.963 262.271 353.099 274.406 353.099 289.37C353.099 304.339 340.963 316.474 326 316.474H145.396C130.427 316.474 118.297 304.339 118.297 289.37C118.297 274.406 130.427 262.271 145.396 262.271Z" fill="#FD9E80"/>
</svg>
