<svg width="17" height="17" viewBox="0 0 17 17" fill="none" xmlns="http://www.w3.org/2000/svg">
<mask id="mask0_1174_523" style="mask-type:luminance" maskUnits="userSpaceOnUse" x="2" y="2" width="13" height="13">
<path d="M2.5127 2.96899H14.4807V14.019H2.5127V2.96899Z" fill="white"/>
</mask>
<g mask="url(#mask0_1174_523)">
<path d="M13.5662 9.42036H7.4257C6.91676 9.42036 6.50433 9.00794 6.50433 8.499C6.50433 7.99024 6.91676 7.57763 7.4257 7.57763H13.5662C14.075 7.57763 14.4876 7.99024 14.4876 8.499C14.4876 9.00794 14.075 9.42036 13.5662 9.42036ZM13.5662 5.12113H7.4257C6.91676 5.12113 6.50433 4.70853 6.50433 4.19977C6.50433 3.69083 6.91676 3.27823 7.4257 3.27823H13.5662C14.075 3.27823 14.4876 3.69083 14.4876 4.19977C14.4876 4.70853 14.075 5.12113 13.5662 5.12113ZM3.74006 14.0258C3.06218 14.0258 2.5127 13.4763 2.5127 12.7984C2.5127 12.1204 3.06218 11.571 3.74006 11.571C4.41811 11.571 4.96742 12.1204 4.96742 12.7984C4.9692 13.4747 4.41971 14.0258 3.74006 14.0258ZM3.74006 9.72654C3.06218 9.72654 2.5127 9.17705 2.5127 8.499C2.5127 7.82112 3.06218 7.27163 3.74006 7.27163C4.41811 7.27163 4.96742 7.82112 4.96742 8.499C4.96742 9.17705 4.41971 9.72654 3.74006 9.72654ZM3.74006 5.42873C3.06218 5.42873 2.5127 4.87942 2.5127 4.20136C2.5127 3.52349 3.06218 2.974 3.74006 2.974C4.41811 2.974 4.96742 3.52349 4.96742 4.20136C4.96742 4.87942 4.41971 5.42873 3.74006 5.42873ZM7.4257 11.8753H13.5662C14.075 11.8753 14.4876 12.2879 14.4876 12.7966C14.4876 13.3056 14.075 13.7182 13.5662 13.7182H7.4257C6.91676 13.7182 6.50433 13.3056 6.50433 12.7966C6.50433 12.2879 6.91676 11.8753 7.4257 11.8753Z" fill="#EBEBEB"/>
</g>
</svg>
