<svg width="13" height="13" viewBox="0 0 13 13" fill="none" xmlns="http://www.w3.org/2000/svg">
<path d="M2.89305 3.55888C2.89328 3.44245 2.89928 3.32602 2.91082 3.21028C2.92236 3.0943 2.93991 2.97924 2.96299 2.86487C2.98607 2.75072 3.01469 2.63771 3.04885 2.52631C3.08324 2.4149 3.12294 2.30532 3.16795 2.19756C3.21319 2.09004 3.26351 1.98479 3.31914 1.88206C3.37453 1.77933 3.43524 1.67956 3.50056 1.58277C3.56611 1.48574 3.63605 1.39237 3.71083 1.30219C3.78561 1.21224 3.86455 1.12595 3.94788 1.04353C4.0312 0.96112 4.11845 0.883043 4.20939 0.809076C4.30056 0.735108 4.39497 0.665935 4.49283 0.601099C4.59093 0.536264 4.6918 0.476451 4.79566 0.421432C4.89953 0.366413 5.00571 0.316644 5.11465 0.272127C5.22336 0.227381 5.33416 0.188115 5.44679 0.154099C5.55943 0.120311 5.67369 0.0920027 5.78909 0.0689449C5.90473 0.0461155 6.02106 0.0289934 6.13832 0.0175787C6.25557 0.00593564 6.37306 0.00022828 6.49077 0C11.246 0.166198 11.2553 6.9365 6.50301 7.11708C6.38483 7.11731 6.26711 7.11206 6.14963 7.10087C6.03214 7.08968 5.91558 7.07279 5.79971 7.05019C5.68384 7.02782 5.56936 6.99951 5.45626 6.96595C5.34339 6.93239 5.23214 6.89335 5.12296 6.84883C5.01401 6.80432 4.90715 6.75478 4.80305 6.69976C4.69872 6.64497 4.59762 6.58515 4.4993 6.52055C4.40097 6.45594 4.3061 6.38654 4.2147 6.31257C4.1233 6.23883 4.03582 6.16053 3.95226 6.07811C3.86871 5.9957 3.78931 5.9094 3.71429 5.81923C3.63928 5.72928 3.56888 5.63568 3.5031 5.53865C3.43731 5.44163 3.37661 5.34163 3.32075 5.2389C3.26513 5.13594 3.21458 5.0307 3.16911 4.92271C3.12387 4.81496 3.08394 4.70515 3.04954 4.59351C3.01515 4.48188 2.9863 4.36887 2.96322 4.25427C2.94014 4.13989 2.9226 4.02437 2.91082 3.90817C2.89928 3.7922 2.89328 3.67554 2.89305 3.55888ZM10.1321 7.11891C10.0843 7.08968 10.0331 7.068 9.97886 7.05361C9.92461 7.03923 9.86945 7.03261 9.81313 7.03398C9.75704 7.03535 9.70211 7.04448 9.64879 7.0616C9.59524 7.07873 9.54515 7.10293 9.49876 7.1342C9.39166 7.22027 9.2811 7.30177 9.16685 7.37825C9.05259 7.45496 8.93511 7.52664 8.81462 7.5933C8.69414 7.65974 8.57088 7.72115 8.44509 7.77731C8.31929 7.83347 8.19119 7.88415 8.06101 7.92935C7.93083 7.97455 7.7988 8.01405 7.66516 8.04806C7.53129 8.08208 7.39649 8.11039 7.26031 8.13276C7.12413 8.15514 6.98726 8.1718 6.84969 8.18253C6.71189 8.19349 6.5741 8.19828 6.43607 8.19737C6.29804 8.19646 6.16024 8.18961 6.02291 8.17682C5.88557 8.16427 5.74893 8.14555 5.61298 8.12135C5.47726 8.09692 5.3427 8.06678 5.20952 8.03117C5.07633 7.99533 4.94477 7.95378 4.81528 7.90675C4.68556 7.85972 4.55839 7.80744 4.43328 7.74946C4.30818 7.6917 4.18608 7.62846 4.06652 7.5602C3.94695 7.49194 3.83062 7.41866 3.71752 7.34058C3.60419 7.26228 3.49479 7.1794 3.38884 7.09174C3.34891 7.0737 3.30736 7.06046 3.2642 7.05224C3.22081 7.04403 3.17742 7.04129 3.13356 7.04357C3.08948 7.04585 3.04654 7.05316 3.00453 7.06571C2.9623 7.0785 2.92236 7.09585 2.88474 7.11799C2.66339 7.26364 2.45196 7.42208 2.25023 7.59353C2.04873 7.76498 1.85854 7.94807 1.67989 8.14258C1.501 8.33731 1.33505 8.54187 1.18179 8.75692C1.02875 8.97174 0.889342 9.19502 0.764009 9.42696C0.638676 9.65868 0.528116 9.89748 0.432558 10.1427C0.337 10.3881 0.256907 10.6383 0.19251 10.8933C0.128112 11.1485 0.0798719 11.4065 0.0475577 11.6674C0.0154744 11.9284 -0.000451906 12.1905 9.75463e-06 12.4535C9.75463e-06 12.4893 0.00347196 12.5249 0.0103965 12.5601C0.0175517 12.5952 0.0279384 12.6295 0.0420182 12.6626C0.0558671 12.6959 0.0729474 12.7274 0.0930284 12.7571C0.113109 12.787 0.13596 12.8146 0.161811 12.84C0.187432 12.8655 0.215361 12.8881 0.245597 12.908C0.275603 12.9279 0.307456 12.9448 0.341155 12.9585C0.374623 12.9724 0.409246 12.9826 0.444791 12.9897C0.480337 12.9966 0.516344 13 0.552582 13H12.4472C12.4837 13 12.5194 12.9966 12.5552 12.9897C12.5908 12.9826 12.6254 12.9724 12.6589 12.9585C12.6923 12.9448 12.7242 12.9279 12.7544 12.908C12.7846 12.8881 12.8126 12.8655 12.8382 12.84C12.8638 12.8146 12.8869 12.787 12.907 12.7571C12.9271 12.7274 12.9441 12.6959 12.958 12.6626C12.9718 12.6295 12.9825 12.5952 12.9894 12.5601C12.9965 12.5249 13 12.4893 13 12.4535C12.9998 12.1909 12.9834 11.9298 12.9511 11.6693C12.9185 11.409 12.8703 11.1515 12.8059 10.897C12.7417 10.6424 12.6621 10.3926 12.5668 10.1479C12.4717 9.90296 12.362 9.66462 12.2374 9.43313C12.113 9.20141 11.9745 8.97814 11.8224 8.76308C11.6705 8.54826 11.5057 8.34325 11.3282 8.14829C11.1507 7.95332 10.9621 7.76955 10.762 7.59741C10.5619 7.42528 10.3519 7.2657 10.1321 7.11891Z" fill="#EBEBEB"/>
</svg>
