<svg width="81" height="93" viewBox="0 0 81 93" fill="none" xmlns="http://www.w3.org/2000/svg">
<path d="M57.3749 67.2287V27.5751C57.3749 27.5751 62.1313 35.0273 79.3266 35.4825C80.2428 35.5107 81 34.8017 81 33.9397V22.7292C81 21.8954 80.2921 21.2347 79.405 21.1904C66.0683 20.4774 59.7345 10.8662 59.1135 2.04843C59.0557 1.23071 58.2967 0.610356 57.4242 0.610356H43.8283C42.9224 0.610356 42.1874 1.29919 42.1874 2.15317V65.1904C42.1874 72.0384 36.6207 77.9961 29.3436 78.3183C21.0252 78.6889 14.2628 71.9779 15.2913 64.0504C16.0177 58.4472 20.8014 53.8591 26.7483 53.0817C27.9294 52.9286 29.086 52.9165 30.2019 53.0333C31.1902 53.138 32.0627 52.4452 32.0627 51.5107V40.276C32.0627 39.4744 31.4156 38.7856 30.5671 38.7372C28.8602 38.6325 27.1126 38.6688 25.3376 38.8581C12.2199 40.2559 1.63493 50.2337 0.181744 62.564C-1.73512 78.8379 11.7648 92.6104 28.6875 92.6104C44.5311 92.6104 57.3749 80.5378 57.3749 65.6456" fill="#0E0F11"/>
</svg>
